<?xml version="1.0" standalone="no"?>
<!DOCTYPE svg PUBLIC "-//W3C//DTD SVG 20010904//EN"
 "http://www.w3.org/TR/2001/REC-SVG-20010904/DTD/svg10.dtd">
<svg version="1.0" xmlns="http://www.w3.org/2000/svg"
 width="48.000000pt" height="48.000000pt" viewBox="0 0 48.000000 48.000000"
 preserveAspectRatio="xMidYMid meet">

<g transform="translate(0.000000,48.000000) scale(0.100000,-0.100000)"
fill="#000000" stroke="none">
<path d="M157 432 c-10 -10 -17 -31 -17 -45 0 -22 -5 -27 -25 -27 -16 0 -25 6
-25 15 0 8 7 15 15 15 8 0 15 7 15 15 0 22 -37 18 -50 -4 -5 -11 -10 -86 -10
-170 0 -138 2 -151 19 -161 11 -5 84 -10 165 -10 118 0 147 3 160 16 13 12 16
40 16 135 0 107 -2 121 -20 136 -11 10 -20 29 -20 44 0 46 -27 59 -122 59 -70
0 -88 -3 -101 -18z m53 -42 c0 -23 -4 -30 -20 -30 -14 0 -20 7 -20 23 0 27 7
37 27 37 8 0 13 -12 13 -30z m138 -2 c3 -28 2 -28 -52 -28 -56 0 -56 0 -56 31
l0 30 53 -3 c48 -3 52 -5 55 -30z m42 -178 l0 -120 -150 0 -150 0 0 120 0 120
150 0 150 0 0 -120z"/>
<path d="M314 225 c-4 -9 -2 -21 4 -27 15 -15 44 -1 40 19 -4 23 -36 29 -44 8z"/>
</g>
</svg>
