<?xml version="1.0" standalone="no"?>
<!DOCTYPE svg PUBLIC "-//W3C//DTD SVG 20010904//EN"
 "http://www.w3.org/TR/2001/REC-SVG-20010904/DTD/svg10.dtd">
<svg version="1.0" xmlns="http://www.w3.org/2000/svg"
 width="48.000000pt" height="48.000000pt" viewBox="0 0 48.000000 48.000000"
 preserveAspectRatio="xMidYMid meet">

<g transform="translate(0.000000,48.000000) scale(0.100000,-0.100000)"
fill="#000000" stroke="none">
<path d="M290 430 c-8 -5 -33 -10 -54 -10 -37 0 -47 -7 -138 -98 -67 -67 -98
-105 -98 -121 0 -28 113 -149 147 -157 13 -4 33 0 48 10 16 10 34 14 55 9 29
-5 38 1 131 94 l99 99 0 73 c0 106 -5 111 -98 111 -42 0 -84 -5 -92 -10z m160
-87 l0 -68 -92 -92 c-51 -51 -97 -93 -103 -93 -13 0 -125 111 -125 124 0 6 42
52 92 103 l93 93 67 0 68 0 0 -67z m-278 -27 c-44 -45 -72 -82 -72 -95 0 -12
21 -44 46 -71 39 -42 45 -52 34 -65 -7 -8 -17 -15 -23 -15 -14 0 -127 111
-127 124 0 16 183 196 199 196 8 0 -18 -33 -57 -74z"/>
<path d="M364 366 c-10 -26 4 -48 28 -44 33 4 33 52 0 56 -13 2 -25 -3 -28
-12z"/>
</g>
</svg>
