<?xml version="1.0" standalone="no"?>
<!DOCTYPE svg PUBLIC "-//W3C//DTD SVG 20010904//EN"
 "http://www.w3.org/TR/2001/REC-SVG-20010904/DTD/svg10.dtd">
<svg version="1.0" xmlns="http://www.w3.org/2000/svg"
 width="48.000000pt" height="48.000000pt" viewBox="0 0 48.000000 48.000000"
 preserveAspectRatio="xMidYMid meet">

<g transform="translate(0.000000,48.000000) scale(0.100000,-0.100000)"
fill="#000000" stroke="none">
<path d="M62 398 c-17 -17 -17 -299 0 -316 17 -17 339 -17 356 0 17 17 17 299
0 316 -17 17 -339 17 -356 0z m338 -33 c0 -13 -24 -15 -160 -15 -136 0 -160 2
-160 15 0 13 24 15 160 15 136 0 160 -2 160 -15z m0 -155 l0 -110 -160 0 -160
0 0 110 0 110 160 0 160 0 0 -110z"/>
<path d="M292 272 c-29 -33 -25 -53 16 -71 43 -19 41 -35 -3 -27 -41 8 -44 -2
-10 -32 l26 -22 25 24 c33 30 28 57 -14 76 -36 17 -33 33 4 24 30 -8 32 15 4
39 -24 21 -20 21 -48 -11z"/>
<path d="M110 245 c0 -12 14 -15 65 -15 51 0 65 3 65 15 0 12 -14 15 -65 15
-51 0 -65 -3 -65 -15z"/>
<path d="M110 185 c0 -11 12 -15 45 -15 33 0 45 4 45 15 0 11 -12 15 -45 15
-33 0 -45 -4 -45 -15z"/>
</g>
</svg>
