<?xml version="1.0" standalone="no"?>
<!DOCTYPE svg PUBLIC "-//W3C//DTD SVG 20010904//EN"
 "http://www.w3.org/TR/2001/REC-SVG-20010904/DTD/svg10.dtd">
<svg version="1.0" xmlns="http://www.w3.org/2000/svg"
 width="50.000000pt" height="50.000000pt" viewBox="0 0 50.000000 50.000000"
 preserveAspectRatio="xMidYMid meet">

<g transform="translate(0.000000,50.000000) scale(0.100000,-0.100000)"
fill="#000000" stroke="none">
<path d="M188 441 c-41 -13 -84 -47 -107 -84 -23 -38 -39 -117 -24 -117 6 0
13 17 17 38 13 82 95 152 176 152 42 0 108 -29 134 -59 l19 -21 -36 0 c-21 0
-37 -4 -37 -10 0 -5 23 -10 50 -10 l50 0 0 50 c0 28 -4 50 -10 50 -5 0 -10
-11 -10 -25 l0 -25 -43 31 c-47 33 -128 46 -179 30z"/>
<path d="M223 333 c-36 -41 -26 -67 36 -93 33 -13 39 -28 19 -48 -18 -18 -46
-14 -60 8 -7 11 -16 20 -20 20 -16 0 -7 -20 22 -50 l30 -30 30 26 c16 15 30
35 30 44 0 21 -26 45 -63 59 -19 7 -27 17 -25 29 4 22 46 29 54 8 6 -17 24
-22 24 -7 0 8 -46 62 -52 60 -2 0 -13 -12 -25 -26z"/>
<path d="M426 222 c-13 -82 -95 -152 -176 -152 -42 0 -108 29 -134 59 l-19 21
36 0 c21 0 37 5 37 10 0 6 -22 10 -50 10 l-50 0 0 -50 c0 -27 5 -50 10 -50 6
0 10 11 10 25 l0 25 46 -33 c40 -28 53 -32 112 -32 79 0 129 25 167 84 26 39
44 121 28 121 -6 0 -13 -17 -17 -38z"/>
</g>
</svg>
