<?xml version="1.0" standalone="no"?>
<!DOCTYPE svg PUBLIC "-//W3C//DTD SVG 20010904//EN"
 "http://www.w3.org/TR/2001/REC-SVG-20010904/DTD/svg10.dtd">
<svg version="1.0" xmlns="http://www.w3.org/2000/svg"
 width="48.000000pt" height="48.000000pt" viewBox="0 0 48.000000 48.000000"
 preserveAspectRatio="xMidYMid meet">

<g transform="translate(0.000000,48.000000) scale(0.100000,-0.100000)"
fill="#000000" stroke="none">
<path d="M67 402 c-14 -16 -17 -43 -17 -164 0 -128 2 -147 18 -161 10 -10 26
-17 35 -17 24 0 21 27 -3 33 -18 5 -20 14 -20 101 l0 96 135 0 c113 0 135 2
135 15 0 13 -22 15 -136 15 l-135 0 3 33 c2 27 8 33 31 35 15 2 27 9 27 18 0
21 -54 18 -73 -4z"/>
<path d="M180 405 c0 -11 21 -15 108 -17 l107 -3 0 -145 0 -145 -37 -3 c-22
-2 -38 1 -38 7 0 25 -41 51 -80 51 -47 0 -80 -27 -80 -65 l0 -25 118 0 c158 0
152 -7 152 182 0 184 4 178 -143 178 -87 0 -107 -3 -107 -15z m100 -300 c11
-13 5 -15 -40 -15 -45 0 -51 2 -40 15 16 19 64 19 80 0z"/>
<path d="M300 355 c0 -8 7 -15 15 -15 8 0 15 7 15 15 0 8 -7 15 -15 15 -8 0
-15 -7 -15 -15z"/>
<path d="M350 355 c0 -8 7 -15 15 -15 8 0 15 7 15 15 0 8 -7 15 -15 15 -8 0
-15 -7 -15 -15z"/>
<path d="M206 244 c-31 -30 -9 -84 34 -84 24 0 50 26 50 50 0 24 -26 50 -50
50 -10 0 -26 -7 -34 -16z m50 -25 c10 -17 -13 -36 -27 -22 -12 12 -4 33 11 33
5 0 12 -5 16 -11z"/>
</g>
</svg>
