<?xml version="1.0" standalone="no"?>
<!DOCTYPE svg PUBLIC "-//W3C//DTD SVG 20010904//EN"
 "http://www.w3.org/TR/2001/REC-SVG-20010904/DTD/svg10.dtd">
<svg version="1.0" xmlns="http://www.w3.org/2000/svg"
 width="32.000000pt" height="32.000000pt" viewBox="0 0 32.000000 32.000000"
 preserveAspectRatio="xMidYMid meet">

<g transform="translate(0.000000,32.000000) scale(0.100000,-0.100000)"
fill="#000000" stroke="none">
<path d="M112 247 c-26 -27 -28 -54 -6 -85 14 -20 14 -23 -1 -28 -27 -11 -58
-84 -35 -84 6 0 10 6 10 14 0 8 8 24 18 36 16 20 19 21 31 6 17 -20 45 -20 62
0 12 15 15 14 31 -6 10 -12 18 -28 18 -36 0 -8 5 -14 10 -14 23 0 -8 73 -35
84 -15 5 -15 8 -1 28 22 32 20 61 -7 86 -30 28 -68 28 -95 -1z m82 -13 c31
-30 9 -84 -34 -84 -24 0 -50 26 -50 50 0 24 26 50 50 50 10 0 26 -7 34 -16z
m-22 -116 c-9 -9 -15 -9 -24 0 -9 9 -7 12 12 12 19 0 21 -3 12 -12z"/>
</g>
</svg>
