<svg width="20" height="20" viewBox="0 0 20 20" fill="none" xmlns="http://www.w3.org/2000/svg">
<mask id="mask0_160_3413" style="mask-type:alpha" maskUnits="userSpaceOnUse" x="0" y="0" width="20" height="20">
<rect width="20" height="20" fill="#D9D9D9"/>
</mask>
<g mask="url(#mask0_160_3413)">
<path d="M1.66797 20.0001V16.6667H18.3346V20.0001H1.66797ZM5.0013 13.3334H6.16797L12.668 6.85425L11.4805 5.66675L5.0013 12.1667V13.3334ZM3.33464 15.0001V11.4584L12.668 2.14591C12.8207 1.99314 12.9978 1.87508 13.1992 1.79175C13.4006 1.70841 13.6124 1.66675 13.8346 1.66675C14.0569 1.66675 14.2721 1.70841 14.4805 1.79175C14.6888 1.87508 14.8763 2.00008 15.043 2.16675L16.1888 3.33341C16.3555 3.48619 16.477 3.66675 16.5534 3.87508C16.6298 4.08341 16.668 4.29869 16.668 4.52091C16.668 4.72925 16.6298 4.93411 16.5534 5.1355C16.477 5.33689 16.3555 5.52092 16.1888 5.68758L6.8763 15.0001H3.33464Z" fill="#198FD9"/>
</g>
</svg>
