<?xml version="1.0" standalone="no"?>
<!DOCTYPE svg PUBLIC "-//W3C//DTD SVG 20010904//EN"
 "http://www.w3.org/TR/2001/REC-SVG-20010904/DTD/svg10.dtd">
<svg version="1.0" xmlns="http://www.w3.org/2000/svg"
 width="48.000000pt" height="48.000000pt" viewBox="0 0 48.000000 48.000000"
 preserveAspectRatio="xMidYMid meet">

<g transform="translate(0.000000,48.000000) scale(0.100000,-0.100000)"
fill="#000000" stroke="none">
<path d="M57 382 c-14 -15 -17 -41 -17 -144 0 -155 2 -158 113 -158 63 0 75 3
71 15 -4 10 -26 15 -77 17 l-72 3 0 125 0 125 165 0 165 0 3 -62 c2 -42 7 -63
17 -67 12 -4 15 7 15 63 0 101 0 101 -202 101 -147 0 -167 -2 -181 -18z"/>
<path d="M110 295 c0 -12 17 -15 90 -15 73 0 90 3 90 15 0 12 -17 15 -90 15
-73 0 -90 -3 -90 -15z"/>
<path d="M320 295 c0 -9 9 -15 25 -15 16 0 25 6 25 15 0 9 -9 15 -25 15 -16 0
-25 -6 -25 -15z"/>
<path d="M110 235 c0 -12 15 -15 74 -15 53 0 77 4 86 15 11 13 2 15 -74 15
-70 0 -86 -3 -86 -15z"/>
<path d="M298 224 c-30 -16 -58 -61 -58 -94 0 -53 57 -110 110 -110 53 0 110
57 110 110 0 34 -28 78 -60 95 -36 19 -67 19 -102 -1z m72 -31 c28 -25 25 -33
-10 -26 -23 4 -30 2 -30 -10 0 -10 11 -17 28 -19 35 -4 43 -42 13 -69 -19 -18
-21 -18 -41 -2 -28 25 -25 33 10 27 23 -5 30 -3 30 9 0 8 -13 17 -30 21 -35 6
-40 35 -12 65 22 24 18 24 42 4z"/>
</g>
</svg>
